
<svg xmlns="http://www.w3.org/2000/svg" enable-background="new 0 0 3000 2500" viewBox="0 0 3000 2500"><path fill="none" d="M40.7 33.9h2918.6v2432.2H40.7z"/><path fill="#706e6e" stroke="#29174c" stroke-linecap="round" stroke-linejoin="round" stroke-miterlimit="10" stroke-width="15.508" d="M2242.5 886.1v1002.2l-69.5 38.1-4.8-6.4 4.8 2.7V923.9z"/><path fill="#eaeaea" stroke="#29174c" stroke-linecap="round" stroke-linejoin="round" stroke-miterlimit="10" stroke-width="14.387" d="M2242.5 744.1v142l-69.5 37.8V778.6L1108.7 167.9V93.6z"/><path fill="#706e6e" stroke="#29174c" stroke-linecap="round" stroke-linejoin="round" stroke-miterlimit="10" stroke-width="14.387" d="M2173 778.6v1144.1l-4.8-2.7L1108.7 507.1V167.9z"/><path fill="#eaeaea" stroke="#29174c" stroke-linecap="round" stroke-linejoin="round" stroke-miterlimit="10" stroke-width="14.387" d="M2173 778.6v1144.1l-4.8-2.7-1129-647.8V128l69.5 39.9z"/><path fill="#61c98b" stroke="#29174c" stroke-linecap="round" stroke-linejoin="round" stroke-miterlimit="10" stroke-width="16.219" d="m1108.7 93.6-69.4 38 1133.9 650.6 69.3-38z"/><path fill="#3da568" stroke="#29174c" stroke-linecap="round" stroke-linejoin="round" stroke-miterlimit="10" stroke-width="16.219" d="m1039.3 131.6 1133.9 650.6v147L1039.3 278.5z"/><path fill="#6e8ddb" stroke="#29174c" stroke-linecap="round" stroke-linejoin="round" stroke-miterlimit="10" stroke-width="14.134" d="m1086.9 568.2 519.4 298v369.4l-519.4-298z"/><path fill="#61c98b" stroke="#29174c" stroke-linecap="round" stroke-linejoin="round" stroke-miterlimit="10" stroke-width="14.134" d="m1086.9 1002.9 519.4 298v255.3l-519.4-298.1z"/><path fill="#ef3030" stroke="#29174c" stroke-linecap="round" stroke-linejoin="round" stroke-miterlimit="10" stroke-width="14.134" d="m1657.1 888.8 417.9 239.8V1498l-417.9-239.9z"/><path fill="#fefffb" stroke="#29174c" stroke-linecap="round" stroke-linejoin="round" stroke-miterlimit="10" stroke-width="14.134" d="m1657.1 1336.6 417.9 239.8v250.2l-417.9-239.8z"/><path fill="#fff3ff" stroke="#29174c" stroke-linecap="round" stroke-linejoin="round" stroke-miterlimit="10" stroke-width="16.219" d="M2041.9 901.1v147l-225.5-129.4L1097.5 506V359.2l718.9 412.5z"/><path fill="#3da568" stroke="#29174c" stroke-linecap="round" stroke-linejoin="round" stroke-miterlimit="10" stroke-width="16.219" d="M2242.5 744.1v142l-69.5 37.8V782.2z"/><path fill="#f49914" stroke="#29174c" stroke-linecap="round" stroke-linejoin="round" stroke-miterlimit="10" stroke-width="14.134" d="M2041.9 901.1v147l-225.5-129.4v-147z"/><path fill="none" stroke="#29174c" stroke-linecap="round" stroke-linejoin="round" stroke-miterlimit="10" stroke-width="16.219" d="m1140.5 881.7 149-57.9 77.4 138.6 189.5-69.3"/><path fill="#fff" stroke="#29174c" stroke-linecap="round" stroke-linejoin="round" stroke-miterlimit="10" stroke-width="16.219" d="M1164.5 903c0 15.4-12.5 20-27.9 10.3-15.4-9.8-27.9-30.2-27.9-45.6 0-15.4 12.5-20 27.9-10.3 15.4 9.7 27.9 30.1 27.9 45.6zM1308.9 841.5c0 15.4-12.5 20-27.9 10.3-15.4-9.8-27.9-30.2-27.9-45.6s12.5-20 27.9-10.3c15.4 9.7 27.9 30.1 27.9 45.6zM1402.5 998.5c0 15.4-12.5 20-27.9 10.3-15.4-9.8-27.9-30.2-27.9-45.6 0-15.4 12.5-20 27.9-10.3 15.4 9.8 27.9 30.2 27.9 45.6zM1584.3 910.8c0 15.4-12.5 20-27.9 10.3-15.4-9.8-27.9-30.2-27.9-45.6s12.5-20 27.9-10.3c15.4 9.7 27.9 30.2 27.9 45.6z"/><path fill="#3da568" stroke="#29174c" stroke-linecap="round" stroke-linejoin="round" stroke-miterlimit="10" stroke-width="16.219" d="m1124.1 639.9 156.9 92.7M1124.1 686.2l105.6 62.4M1439.7 1067l105.6 62.4M1439.7 1025.3l105.6 62.4M1140.5 447.9l500.4 295.5"/><path fill="#fff3ff" stroke="#29174c" stroke-linecap="round" stroke-linejoin="round" stroke-miterlimit="10" stroke-width="16.219" d="M1714.8 1113.9v121.6l53 33.3v-124zM1796.7 1119.8v159.8l53.1 33.3v-162.2zM1878.7 1098.2v225.5l53 33.4v-228zM1960.6 1190v177.9l53.1 33.3v-180.3z"/><path fill="#fefffb" stroke="#ef3030" stroke-linecap="round" stroke-linejoin="round" stroke-miterlimit="10" stroke-width="14.134" d="m1694.1 1545 67.4 17.2 54.9 25.7 14.9 19.6s37.7 13.1 40.9 9c3.2-4.1 28.5.5 33-2.4s44.9-12.7 44.9-12.7l37 15.9 31.6-6.1 23.2-12.3"/><path fill="#fff" d="M2165.1 915.2V786.9L1047.4 145.6v14.9l1103.7 633.3c2.5 1.5 4.1 4.1 4.1 7v108.7l9.9 5.7z"/><path fill="#1c683b" d="M2177.1 762.2c-2.5 1.4-5.5 1.3-7.9-.1L1063.4 127.6l-7.5 4.1 1117.4 641.2L2226 744l-7.7-4.4-41.2 22.6z"/><path fill="#fff" d="M2185.4 908V794.9c0-3 1.6-5.7 4.2-7.1l44.8-24.5v-5.4l-53.1 29.1v123.3l4.1-2.3zM2186.6 1910.1V936.6c0-2.8 1.5-5.5 4-6.8l44.2-24v-6.6l-54 29.3v984.8l5.8-3.2z"/><path fill="#6e8ddb" stroke="#332456" stroke-linecap="round" stroke-linejoin="round" stroke-miterlimit="10" stroke-width="12.525" d="M1187.4 1310.9c0 53.7-11.5 104.7-32.1 150.7-6 13.5-12.9 26.6-20.4 39-64.3 107.4-182 179.1-316.2 179.1-29.9 0-58.8-3.6-86.6-10.2-34.6-8.3-67.1-21.4-97-38.7-110.7-63.6-185.3-183-185.3-319.9 0-203.5 165-368.5 368.5-368.7h.4c29.8 0 58.8 3.5 86.5 10.4 37.4 8.9 72.4 23.6 104.3 42.8 26.6 16.1 50.9 35.4 72.5 57.5 65.2 66.5 105.4 157.5 105.4 258z"/><path fill="#466ab2" stroke="#332456" stroke-linecap="round" stroke-linejoin="round" stroke-miterlimit="10" stroke-width="12.525" d="M449.9 1310.9c0 136.9 74.5 256.3 185.2 319.9l-7.1-43.3s-8.8-5-9.3-13.3-20.4-8.9-26.8-14.4c-6.4-5.5-14.2-11.8-14.2-11.8l-15.5-16.9 3.9-4.1c4-4.3 11.6-26.3 11.6-26.3s-.4-11.4 0-21c.5-9.6 0-15 0-15v-15.8s13-24.2 20.5-19.9c7.5 4.4 20.9-4.3 27.3 0 6.3 4.4 16.5-6.3 22.2-9.4 5.8-3.1 19-4.4 28.8-8.3 9.8-3.8 17.3-17 17.3-17l-17.3-9.3-16.9-26.3v-23.2s7.1-11.6 16.9-24.5v-25.2l-26.9-11.1-10.4-6.3-6.6-19.5-7-22 13.6-11v-35.7l-20.5-8.4 7.4-14 25.6-3.4s-12.4-21.9-12.4-36.3c0-14.4 37.3-35.7 37.3-35.7s7.4 1.9 24 0c16.8-1.9 20.5 0 20.5 0s-4.9-20.9 0-28.6c4.9-7.6 20.4-47.5 20.4-47.5s14.7-5.8 23.9-1.8c9.4 4 24.9 0 24.9 0h70.5s28.4-6 34.2-13.5c5.6-7.6 0-28.6 0-28.6l12.4-2.8c-27.7-6.9-59-17.4-88.8-17.4-203.5 0-368.7 165.1-368.7 368.7zM732.2 1669.5c27.7 6.6 56.7 10.3 86.5 10.3 134.3 0 251.9-71.8 316.2-179.1h-30.7l-55.1-21-11.4-13.1-43.7-17.7-28.6-19.9-15.3 28.1-22.8 33.2H895l-15.3-10.5h-18.9l-13.4 10.5s3.5 17-8.8 22.4c-12.2 5.3-38.8 9.1-38.8 9.1l-17-9.1s1.9 33.2 0 42c-2 8.9-7.6 30.2-7.6 30.2l-13.3 8h-20.4v27.6l10.9 30.9-20.2 18.1zM959.7 1310.9h49.5l7.6 24.5 41.8 12.4 26.7-12.4h9.4l24.8 12.4 7.6 10.8 7.8 26.3s.3 14.9 0 26.3-5.4 4.9.1 17.7c5.4 12.8 10.3 5.6 14.9 19.9 1.4 4.1 3.4 8.6 5.4 12.8 20.5-46 32.1-96.9 32.1-150.7 0-133.8-71.3-250.9-177.8-315.5l-30.8 20.2s3.8 13.3 0 26.7c-3.8 13.3-7.6 22.8 0 32.3 7.6 9.5 22.8 21.4 22.8 21.4l6.4 10.9v25.4s-10.1 19.8-10.1 21.9 10.1 13.5 10.1 13.5v20.9l-12 13.3-5.8 13.8s0 32.2 1.9 33.1c2 .8 7.6 3.3 7.6 3.3l-11.4 22.5-28.6 36.3z"/><path fill="#466ab2" stroke="#332456" stroke-linecap="round" stroke-linejoin="round" stroke-miterlimit="10" stroke-width="12.525" d="M805.4 1037.8h33.4v33.1s-15 6-16.7 7.5c-1.7 1.5-24.2 0-24.2 0l-13.5-20h-7.5l28.5-20.6zM889.5 1259.6h33.4v33.1s-15 6-16.7 7.5-24.2 0-24.2 0l-13.5-20H861l28.5-20.6zM732.2 1389.8l29.6 13.5s6 7.5 0 12-21.1 13.5-21.1 13.5l-19.6-19.5 11.1-19.5zM680.2 1152.1l20.4 10.6v10.5l-20.4 9zM1063.3 1374.8l20.5 10.5v10.6l-20.5 9zM933.6 1143.7l20.4 10.5v10.5l-20.4 9.1zM604.7 1464.6l20.5 10.5v10.6l-20.5 9zM690.4 1610.5l20.5 10.5v10.5l-20.5 9.1z"/><path fill="#fff" d="M456.1 1310.9c0-199.9 162.7-362.5 362.6-362.5 29.2 0 57.8 3.4 85 10.2 36 8.6 70.5 22.7 102.6 42.1 109.5 66.4 174.8 182.3 174.8 310.1 0 51.5-10.6 101.3-31.5 148.1-5.7 12.8-12.4 25.7-20.1 38.4-43.3 72.2-110.4 126.1-187.7 154.3 68.3-28.5 127.3-78.2 166.3-143.2 7.4-12.3 13.9-24.8 19.4-37.1 20.2-45.2 30.4-93.4 30.4-143.1 0-123.5-63.1-235.5-168.9-299.7-31-18.7-64.3-32.4-99.1-40.7-26.3-6.5-54-9.9-82.2-9.9-193.2 0-350.3 157.1-350.3 350.2 0 7 .2 14.1.6 21-1.2-12.5-1.9-25.3-1.9-38.2z" opacity=".51"/><path fill="#2d2d2d" d="m1753.7 2125-.4 1.5c3.2-3.2 5.4-5.8 8.6-9 9.1-8.1 18.2-16.2 24.4-25.1 3.5-4.7 7.1-9.4 8.5-15.4 1.9-1.1 2.2-2.6 3.5-4.7 3.3-7.1 6.7-14.3 9-20.8 2.2-9 3.5-17.4 3.2-26.2 1.2-44.2-29.4-88.2-89-121-118-63.7-303.9-60.4-417.1 9.8-60.6 36.9-88 84.3-82.7 130.9.6 7.3 2.7 15 5.2 21.1-.4 1.5.2 2.4.8 3.4 2.1 7.7 6.1 14.2 10.1 20.7 2.8 4.7 5.1 8.4 8.9 12.5 1.1 1.9 2.3 3.7 4.3 5 2.3 3.7 5.5 6.9 8.7 10.1 7 7.3 14.9 13.9 23.7 20.1 7.9 6.7 17.7 12.2 27.5 17.8 9.8 5.6 20.5 10.5 31.6 14 116.8 49.1 282.1 39.2 385.6-23.8 10.2-6.3 16.9-14.2 25.6-20.9z" opacity=".2"/><path fill="#1249a0" stroke="#29174c" stroke-linecap="round" stroke-linejoin="round" stroke-miterlimit="10" stroke-width="9.427" d="M1747.2 1914.5v93l-258.2-22.7v-92.9z"/><path fill="#d32424" stroke="#29174c" stroke-linecap="round" stroke-linejoin="round" stroke-miterlimit="10" stroke-width="9.427" d="M1784.3 1949.3v89.2c-7.8 32.2-33.1 63.5-76.2 88-49.4 28.8-113.1 44-177.9 45.6-4.7-77.1-10.5-156.8-14.5-156.8v-89.2c1.6 21 13.2 134.1 14.5 156.9 64.8-1.6 128.5-16.8 177.9-45.6 2.9-1.6 5.8-3.3 8.5-5.1 38-23.8 60.3-53 67.7-83z"/><path fill="#ef3030" stroke="#29174c" stroke-linecap="round" stroke-linejoin="round" stroke-miterlimit="10" stroke-width="9.427" d="M1716.6 2032.2c-2.7 1.8-5.6 3.6-8.5 5.1-49.4 28.8-113.1 44-177.9 45.6-1.3-22.8-2.9-45.8-4.5-66.8l190.9 16.1z"/><path fill="#ef3030" stroke="#29174c" stroke-linecap="round" stroke-linejoin="round" stroke-miterlimit="10" stroke-width="9.427" d="M1784.3 1948.7v.7c-7.4 29.9-29.7 59.2-67.7 82.9-2.7 1.8-5.6 3.6-8.5 5.1-49.4 28.8-113.1 44-177.9 45.6-1.3-22.8-2.9-45.8-4.5-66.8-3.6-50.5-7.2-90.1-10.1-90.1l268.7 22.6z"/><path fill="#6e8ddb" stroke="#29174c" stroke-linecap="round" stroke-linejoin="round" stroke-miterlimit="10" stroke-width="9.427" d="M1750.1 1891.9v.7l-2.9 21.9-28.8-2.7v-.2l-229.5-22.1 2.7 96.5 1.6 62.8c-74 2.5-149.5-12.7-206-45.6-43.3-25-69.3-56.3-77.5-88.9 0-.7-.2-1.1-.2-1.6l-2-15.9-.4-4.7v-.2c-.2-15.2 3.6-30.6 11.2-45.4 0-.2.2-.2.2-.2 6.7-13.4 16.8-26.6 30.2-38.7 0 0 0-.2.2 0 10.3-9.6 22.6-18.5 36.9-26.8 105.9-61.7 277.7-61.7 384.1 0 53 30.4 79.8 71.1 80.2 111.1z"/><path fill="#fff" d="m1489.7 1882.3 251.4 24.4 2-15.1c-.2-13.5-3.8-27.1-10.6-40.3.2 2.2.3 4.5.3 6.7l-3 23.6c-.5 3.8-3.9 6.6-7.8 6.2l-250.2-24.3 4 151.3c.1 3.9-3 7.2-6.9 7.3-76.9 2.5-152.2-13.9-207.4-45.1 8.7 7.1 18.4 13.8 29.2 20 51.5 29.9 122.2 46.1 195.1 44.8l-4-152.2c-.1-2 .8-4 2.3-5.4 1.5-1.4 3.5-2.1 5.6-1.9z"/><path fill="#1249a0" stroke="#29174c" stroke-linecap="round" stroke-linejoin="round" stroke-miterlimit="10" stroke-width="9.427" d="M1493.2 2141.7c-74 2.5-149.5-12.7-206-45.6-43.3-25-69.3-56.3-77.5-88.9 0-.7-.2-1.1-.2-1.6l-2.5-20.6v-.2c-.2-19.2-2.9-53.9.4-88l2 15.9c0 .4.2.9.2 1.6 8.3 32.6 34.2 63.9 77.5 88.9 56.5 32.8 132.1 48 206 45.6 1.4 20.3-1.3 71.2.1 92.9z"/><path fill="#07295b" d="M1486.2 2056.2h-9.8l-.2 12.8c-.3 17.6-.7 35.9 0 46.4.1 2-.6 3.9-1.9 5.3-1.3 1.4-3.2 2.3-5.1 2.4-57 1.9-113.2-6.7-161-24 49.3 23.9 112.5 36.6 177.4 35.5-.3-11.1 0-25.9.3-40.3.3-13.8.6-28 .3-38.1z"/><path fill="#fff" d="M1544.8 2054.2c-1.3-22.8-2.9-45.7-4.5-66.7-1.4-19.3-2.7-36.8-4-51.2l-9.2-.8c2.1 13.6 4.2 37.7 7.2 80.1 1.4 18.5 2.7 38.6 4 58.7 59.2-2.5 114.8-16.5 158.2-40-42 16.9-91.4 26.6-143.1 27.8-4.6.1-8.4-3.4-8.6-7.9z"/><path fill="#fc3d38" stroke="#332456" stroke-linecap="round" stroke-linejoin="round" stroke-miterlimit="10" stroke-width="7.493" d="m723 1302 34.4-202.1 182.3 74-63.8 37.7 198.5 259.3-93.2 51.2-196.4-256.6z"/><path fill="#af0e0e" stroke="#332456" stroke-linecap="round" stroke-linejoin="round" stroke-miterlimit="10" stroke-width="7.493" d="m1057.5 1403.3-75.4 118.8 93.2-51.2 75.4-118.8z"/><path fill="#fc3d38" stroke="#332456" stroke-linecap="round" stroke-linejoin="round" stroke-miterlimit="10" stroke-width="7.493" d="m1261.3 1670.2-204.4-266.9 93.2-51.2 204.4 266.9z"/><path fill="#af0e0e" stroke="#332456" stroke-linecap="round" stroke-linejoin="round" stroke-miterlimit="10" stroke-width="7.493" d="m1440.1 1381.6-178.7 288.6 93.2-51.2 178.7-288.6z"/><path fill="#fc3d38" stroke="#332456" stroke-linecap="round" stroke-linejoin="round" stroke-miterlimit="10" stroke-width="7.493" d="m2031.2 2127.8-591.1-746.2 93.2-51.2 591.1 746.2-80.3-23.4z"/><path fill="#4a9917" stroke="#29174c" stroke-linecap="round" stroke-linejoin="round" stroke-miterlimit="10" stroke-width="9.791" d="M2738.8 1146.6V1551l-47.3 25.9-8.4-7.4 8.4 4.9v-401.8z"/><path fill="#ce7806" stroke="#29174c" stroke-linecap="round" stroke-linejoin="round" stroke-miterlimit="10" stroke-width="9.791" d="m2738.8 1146.6-47.3 26v401.8l-8.4-4.9-560.8-499.8V787.5z"/><path fill="#6fcc33" stroke="#29174c" stroke-linecap="round" stroke-linejoin="round" stroke-miterlimit="10" stroke-width="9.791" d="M2691.5 1170.1v404.3l-8.4-4.9-608.1-354V811.2l2.1 1.1 45.2 26.5z"/><path fill="#9bea68" stroke="#29174c" stroke-linecap="round" stroke-linejoin="round" stroke-miterlimit="10" stroke-width="9.791" d="m2738.8 1146.6-47.3 26-569.2-331.5-47.3-27.6 2.1-1.2 45.2-24.8z"/><path fill="#9bea68" d="m2686.7 1565.9-.3-390.5-606.5-353.1v23l584.3 340.3c2.4 1.4 3.9 4 3.9 6.8v363.2l18.6 10.3z"/><path fill="#fff" d="m2720.7 1141.7-25.6 14.3c-2.4 1.3-5.3 1.3-7.7-.1l-594.7-346.6-7.8 4.3 606.5 353.4 37.3-20.4-8-4.9z"/><path fill="#70e82a" d="M2700.9 1566.7v-379.3c0-2.9 1.6-5.5 4.1-6.9l28.9-15.9v-9.6l-37.5 20.3v393.3l4.5-1.9z"/><path fill="#ffdc0d" stroke="#29174c" stroke-linecap="round" stroke-linejoin="round" stroke-miterlimit="10" stroke-width="13.202" d="M2214.7 1115.4s44.7 82.8 75.6 135.1c-19.7 10.3-46.5 8.1-75.8-8.9-60.8-34.9-109.8-119.9-109.6-189.7.2-69.8 49.7-98 110.3-62.9 30 17.5 57.3 47.2 77.2 81.2l-77.7 45.2z"/><path fill="#ef3030" stroke="#29174c" stroke-linecap="round" stroke-linejoin="round" stroke-miterlimit="10" stroke-width="15.059" d="M2352.1 1184.9c-.2 36-13.4 61.1-34.5 71.8-30.9-52.3-75.6-135.1-75.6-135.1l77.6-45.2c20.2 34.5 32.7 73.4 32.5 108.5z"/><path fill="#fff" stroke="#29174c" stroke-linecap="round" stroke-linejoin="round" stroke-miterlimit="10" stroke-width="16.778" d="m2393.7 1194.7 58.6 34.1v108.8l-58.6-34.2zM2478.7 1204.1l58.6 34.2v149.5l-58.6-34.2zM2563.7 1180.5l58.6 34.2V1438l-58.6-34.2z"/><path fill="#14c4bf" stroke="#332456" stroke-linecap="round" stroke-linejoin="round" stroke-miterlimit="10" stroke-width="8.393" d="M993.7 1742.4v289.1l-29.4 15.6v-289.2z"/><path fill="#06ba98" stroke="#332456" stroke-linecap="round" stroke-linejoin="round" stroke-miterlimit="10" stroke-width="8.393" d="m993.7 1742.4-29.4 15.5v289.2l-207-152v-289z"/><path fill="#21f7f7" stroke="#332456" stroke-linecap="round" stroke-linejoin="round" stroke-miterlimit="10" stroke-width="8.393" d="M964.3 1757.9v289.2l-236.2-136.5v-289l29.2 16.9z"/><path fill="#15ffd8" stroke="#332456" stroke-linecap="round" stroke-linejoin="round" stroke-miterlimit="10" stroke-width="8.393" d="m993.7 1742.4-29.4 15.5-207-119.4-29.2-16.9 29.2-15.5z"/><path fill="#12a098" d="M960.1 2039.9v-279.5l-204.9-118.2-23-13.2v8.6L949.5 1763c1.3.8 2.1 2.1 2.1 3.6V2035l8.5 4.9z"/><path fill="#15ffd8" d="M974.8 2036.8v-269.5c0-1.6.9-3 2.2-3.7l12.5-6.6v-7.6l-21 11.1v279.7l6.3-3.4z"/><path fill="#fff" d="m736.7 1621.8 227.7 131.4 20.6-10.9-4.3-2.5-16.4 8.6c-1.3.7-2.8.6-4-.1l-221.4-127.7-2.2 1.2z"/><path fill="none" stroke="#fff" stroke-linecap="round" stroke-linejoin="round" stroke-miterlimit="10" stroke-width="9.27" d="m807.5 1832.9 69.2 71.2M882 1788.7c0 11.9-7.8 17.3-17.4 12.2-9.6-5.2-17.4-19-17.4-30.9s7.8-17.3 17.4-12.2c9.6 5.1 17.4 19 17.4 30.9zM810.5 1822.4c0 11.9-7.8 17.3-17.4 12.2-9.6-5.2-17.4-19-17.4-30.9s7.8-17.3 17.4-12.2c9.6 5.1 17.4 19 17.4 30.9zM908.8 1926.1c0 11.9-7.8 17.3-17.4 12.2s-17.4-19-17.4-30.9 7.8-17.3 17.4-12.2c9.7 5.2 17.4 19 17.4 30.9zM801.5 1798.7l46.8-20.8"/><path fill="#ffbe55" stroke="#332456" stroke-linecap="round" stroke-linejoin="round" stroke-miterlimit="10" stroke-width="7.76" d="m854.7 572.8 218.5 158.3c7.8 4.4 37.3-21 43.5-25.9 4.6-3.7 7.7-9.3 7.7-16V516.9c0-19.5-10.5-37.5-27.5-47l-240.4-135c-7.3-4.1-15.5-2.7-21.1 1.9-4 3.3-32.7 15.2-32.7 21.2l26 170.2c-.1 18.5 9.9 35.5 26 44.6z"/><path fill="#e08814" stroke="#332456" stroke-linecap="round" stroke-linejoin="round" stroke-miterlimit="10" stroke-width="7.76" d="M1090.9 538.4v172.3c0 11.7-9.4 20.1-19.8 20.5-3.5.1-7.2-.7-10.7-2.7l-239-134.2c-8.4-4.8-15.2-11.7-19.7-19.8-4.1-7.4-6.4-16-6.4-24.8v-177c0-8.3 5.3-14.9 12.1-17.3 4.9-2.1 10.6-1.9 15.8 1l240.3 135c8.5 4.8 15.4 11.6 20.1 19.7 4.7 8.2 7.3 17.5 7.3 27.3z"/><path fill="#eaa239" stroke="#332456" stroke-linecap="round" stroke-linejoin="round" stroke-miterlimit="10" stroke-width="7.76" d="M1071.1 731.3c-3.5.1-7.2-.7-10.7-2.7l-239-134.2c-8.4-4.8-15.2-11.7-19.7-19.8 40.3-32.7 119.5-95.4 119.5-95.4l61.8 25.9 88.1 226.2z"/><path fill="#ffd394" d="m921.6 483.6-19.9 15.7 42 17.6c1 .4 1.7 1.2 2.1 2.2l70.4 180.3 46 25.9c.9.5 1.8.9 2.8 1.3L979.7 508l-58.1-24.4z"/><path fill="#ffbe55" stroke="#332456" stroke-linecap="round" stroke-linejoin="round" stroke-miterlimit="10" stroke-width="7.76" d="M1083.4 511.2c-57.4 19.2-119.9 40.3-148.9 50.1-9.6 3.2-20-1-24.7-10L807.2 355.5c4.9-2.1 10.6-1.9 15.8 1l240.3 135c8.5 4.7 15.4 11.5 20.1 19.7z"/><path fill="#fff" d="M933.3 557.6c28.2-9.5 88-29.7 144.1-48.5-4.2-5.8-9.7-10.7-16-14.3l-240.3-135c-2.6-1.4-5.4-2.1-8.2-1.9l8.6 16.3 194.1 109c9 5.1 16.5 12.4 21.6 21.2.6 1 .7 2.2.3 3.3-.4 1.1-1.3 1.9-2.4 2.3-43 14.4-88.6 29.7-121 40.7 4.1 6.5 11.9 9.3 19.2 6.9z"/><path fill="#ffd394" d="M1106.1 708.8c2.3-1.8 4.2-3.4 5.6-4.5l2.6-2.1c3.9-3.1 6.2-7.9 6.2-13V516.9c0-18.1-9.8-34.8-25.6-43.7L854.6 338.3c-5.4-3-12-2.4-16.8 1.5-.5.4-1.1.8-2 1.4.7.3 1.4.6 2 1l240.3 134.9c18.2 10.2 29.5 29.5 29.5 50.4v172.3c.1 3.2-.5 6.2-1.5 9z"/><path fill="#2d2d2d" d="M637.8 1803c-.7-1.5-2.1-2.8-4.1-4L462 1700.6c-3.3-1.9-7.6-2.9-11.9-2.8-4.1.1-8.1 1-11.1 2.8l-173 100.5c-2.2 1.2-3.7 2.8-4.3 4.5l-.1.1c-.3.6-.4 1.3-.4 2 0 2.4 1.6 4.9 4.8 6.7l171.7 98.4c3.4 1.9 7.9 2.8 12.3 2.7 4-.1 7.9-1 10.8-2.7l172.9-100.5c3.2-1.8 4.8-4.2 4.8-6.6 0-.8-.3-1.7-.7-2.7z" opacity=".3"/><path fill="#e2505a" stroke="#332456" stroke-linecap="round" stroke-linejoin="round" stroke-miterlimit="10" stroke-width="8.811" d="M450 1818.1v54.1c-4.4.2-8.9-.7-12.3-2.7L266 1771.1c-1.9-1.1-3.5-2.9-4.8-5.2v-55.7c0 2.4 1.6 4.9 4.8 6.7l171.7 98.4c3.4 2 7.9 2.9 12.3 2.8z"/><path fill="#a5a5a5" stroke="#332456" stroke-miterlimit="10" stroke-width="5.12" d="M638.5 1705.9v2.4c0 2.4-1.6 4.8-4.8 6.6l-172.9 100.5c-2.9 1.7-6.8 2.7-10.8 2.7-4.4.1-8.9-.8-12.3-2.7L266 1717c-3.2-1.9-4.8-4.3-4.8-6.7v-1c.1-.5.2-.8.4-1 0-.1.1-.1.1-.1l177.2-93.1c3.1-1.8 7.1-2.7 11.1-2.8 4.3-.1 8.7.8 11.9 2.8l175.8 90.5.8.3z"/><path fill="#ef848e" stroke="#332456" stroke-linecap="round" stroke-linejoin="round" stroke-miterlimit="10" stroke-width="8.811" d="M637.8 1705.6c-.7-1.5-2.1-2.8-4.1-4L462 1603.1c-3.3-1.9-7.6-2.9-11.9-2.8-4.1.1-8.1 1-11.1 2.8l-173 100.5c-2.2 1.2-3.7 2.8-4.3 4.5l-.1.1c-.3.6-.4 1.3-.4 2 0 2.4 1.6 4.9 4.8 6.7l171.7 98.4c3.4 1.9 7.9 2.8 12.3 2.7 4-.1 7.9-1 10.8-2.7l172.9-100.5c3.2-1.8 4.8-4.2 4.8-6.6 0-.8-.3-1.7-.7-2.6z"/><path fill="#bf3441" stroke="#332456" stroke-linecap="round" stroke-linejoin="round" stroke-miterlimit="10" stroke-width="8.811" d="M638.5 1708.3v55.7c-1.3 2.1-2.9 4-4.8 5l-172.9 100.5c-3 1.7-6.8 2.6-10.8 2.7v-54.1c4-.1 7.9-1 10.8-2.7l172.9-100.5c3.2-1.8 4.8-4.2 4.8-6.6z"/><path fill="#fff" d="M266.1 1704.9zM462.1 1805.5c-3.3 1.9-7.6 3-12 3.1-5 .2-9.9-.9-13.6-3l-171.2-98.2c-.6.6-1 1.1-1.2 1.6 0 .1-.1.2-.1.3-.1.3-.2.6-.2.9 0 1.6 1.3 3.2 3.5 4.5l171.7 98.4c2.8 1.6 6.7 2.5 10.9 2.4 3.6 0 7.1-.9 9.6-2.4l172.9-100.5c2.2-1.3 3.5-2.9 3.5-4.4 0-.5-.1-1-.4-1.6-.2-.3-.5-.8-1.1-1.3l-172.3 100.2z"/><path fill="#ef848e" d="M635.9 1723.9v-7.4l-.9.6-172.9 100.5c-2.7 1.6-6 2.6-9.5 2.9v48.9c2.1-.3 4.1-.8 5.8-1.6v-45.4h2.5c3.5 0 7-.9 9.6-2.4l165.4-96.1z"/><path fill="#bf3441" d="m436.7 1824.5 2.6-.1v43c2.3 1.2 5.1 2 8.2 2.1v-49c-4.1-.2-7.9-1.3-11-3l-171.7-98.4c-.3-.2-.7-.4-1-.6v10.7l161.9 92.8c2.9 1.8 6.7 2.6 11 2.5z"/><path fill="#7f7d7c" d="M261.2 1710.2z"/><path fill="#fdfdfb" d="M374.8 1741.9c-33.5-19.4-30.2-51.6 7.3-71.7s95.3-20.7 128.7-1.3 30.2 51.6-7.3 71.7c-37.4 20.1-95.2 20.7-128.7 1.3zm128.3-68.8c-29.7-17.2-80.8-16.7-114.1 1.1-33.2 17.8-36.1 46.3-6.5 63.5s80.8 16.7 114.1-1.1c33.3-17.9 36.2-46.4 6.5-63.5z"/><path fill="#fdfdfb" d="M454.1 1694.1c-12.6 6.7-24.7 6.7-31.6 2.7-6.6-3.8-6.4-10.4 5.5-16.9 11.9-6.4 24.4-6.6 31.5-2.5 7.4 4.3 5.9 10.6-5.4 16.7zm-20.1-11c-7.8 4-11 8.6-6.5 11.2 4.7 2.7 12.6.9 20.4-3.3 7.2-3.9 11.4-8.2 6.4-11.1-4.4-2.7-12.8-.8-20.3 3.2zm-37 26.8 92.9-14.9 4.6 2.7-92.9 14.9-4.6-2.7zm67 17.5c-12.6 6.7-24.7 6.7-31.5 2.7-6.6-3.8-6.4-10.4 5.4-16.8 12-6.4 24.5-6.7 31.6-2.6 7.5 4.4 5.9 10.6-5.5 16.7zm-20-11c-7.7 4-10.9 8.7-6.4 11.2 4.8 2.8 12.6.9 20.4-3.3 7.2-3.9 11.4-8.2 6.4-11.1-4.5-2.6-12.9-.8-20.4 3.2z"/><path fill="#2d2d2d" d="M2093.1 2293.9c-.7-1.5-2.1-2.8-4.1-4l-171.7-98.4c-3.3-1.9-7.6-2.9-11.9-2.8-4.1.1-8.1 1-11.1 2.8L1721.4 2292c-2.2 1.2-3.7 2.8-4.3 4.5l-.1.1c-.3.6-.4 1.3-.4 2 0 2.4 1.6 4.9 4.8 6.7l171.7 98.4c3.4 1.9 7.9 2.8 12.3 2.7 4-.1 7.9-1 10.8-2.7l172.9-100.5c3.2-1.8 4.8-4.2 4.8-6.6-.1-.9-.3-1.8-.8-2.7z" opacity=".3"/><path fill="#439165" stroke="#332456" stroke-linecap="round" stroke-linejoin="round" stroke-miterlimit="10" stroke-width="8.811" d="M1905.4 2313.2v54.1c-4.4.2-8.9-.7-12.3-2.7l-171.7-98.4c-1.9-1.1-3.5-2.9-4.8-5.2v-55.7c0 2.4 1.6 4.9 4.8 6.7l171.7 98.4c3.4 2.1 7.8 3 12.3 2.8z"/><path fill="#a5a5a5" stroke="#332456" stroke-miterlimit="10" stroke-width="5.12" d="M2093.8 2201.1v2.4c0 2.4-1.6 4.8-4.8 6.6l-172.9 100.5c-2.9 1.7-6.8 2.7-10.8 2.7-4.4.1-8.9-.8-12.3-2.7l-171.7-98.4c-3.2-1.9-4.8-4.3-4.8-6.7v-1c.1-.5.2-.8.4-1 0-.1.1-.1.1-.1l177.2-93.1c3.1-1.8 7.1-2.7 11.1-2.8 4.3-.1 8.7.8 11.9 2.8l175.8 90.5.8.3z"/><path fill="#76c499" stroke="#332456" stroke-linecap="round" stroke-linejoin="round" stroke-miterlimit="10" stroke-width="8.811" d="M2093.1 2200.7c-.7-1.5-2.1-2.8-4.1-4l-171.7-98.4c-3.3-1.9-7.6-2.9-11.9-2.8-4.1.1-8.1 1-11.1 2.8l-172.9 100.5c-2.2 1.2-3.7 2.8-4.3 4.5l-.1.1c-.3.6-.4 1.3-.4 2 0 2.4 1.6 4.9 4.8 6.7l171.7 98.4c3.4 1.9 7.9 2.8 12.3 2.7 4-.1 7.9-1 10.8-2.7l172.9-100.5c3.2-1.8 4.8-4.2 4.8-6.6-.1-.9-.3-1.8-.8-2.7z"/><path fill="#296d45" stroke="#332456" stroke-linecap="round" stroke-linejoin="round" stroke-miterlimit="10" stroke-width="8.811" d="M2093.8 2203.4v55.7c-1.3 2.1-2.9 4-4.8 5l-172.9 100.5c-3 1.7-6.8 2.6-10.8 2.7v-54.1c4-.1 7.9-1 10.8-2.7L2089 2210c3.2-1.7 4.8-4.2 4.8-6.6z"/><path fill="#fff" d="M1721.4 2200zM1917.4 2300.7c-3.3 1.9-7.6 3-12 3.1-5 .2-9.9-.9-13.6-3l-171.2-98.2c-.6.6-1 1.1-1.2 1.6 0 .1-.1.2-.1.3-.1.3-.2.6-.2.9 0 1.6 1.3 3.2 3.5 4.5l171.7 98.4c2.8 1.6 6.7 2.5 10.9 2.4 3.6 0 7.1-.9 9.6-2.4l172.9-100.5c2.2-1.3 3.5-2.9 3.5-4.4 0-.5-.1-1-.4-1.6-.2-.3-.5-.8-1.1-1.3l-172.3 100.2z"/><path fill="#439165" d="M2091.2 2219.1v-7.4l-.9.6-172.9 100.5c-2.7 1.6-6 2.6-9.5 2.9v48.9c2.1-.3 4.1-.8 5.8-1.6v-45.4h2.5c3.5 0 7-.9 9.6-2.4l165.4-96.1z"/><path fill="#76c499" d="m1892 2319.7 2.6-.1v43c2.3 1.2 5.1 2 8.2 2.1v-49c-4.1-.2-7.9-1.3-11-3l-171.7-98.4c-.3-.2-.7-.4-1-.6v10.7l161.9 92.8c2.9 1.7 6.8 2.6 11 2.5z"/><path fill="#7f7d7c" d="M1716.6 2205.4z"/><path fill="#e2505a" d="M1958 2163.6c-16.3 11.1-56 38.5-58.1 40l-13.1 51.8c21.8 1.9 44.6-.9 63.6-8.2 4.9-1.9 9.4-4 13.7-6.5-4.3 2.5-8.8 4.6-13.7 6.5-18.9 7.4-41.7 10.1-63.6 8.2-18.5-1.6-36.4-6.5-50.6-14.7-35.4-20.4-35.6-53.6-.4-74 33.4-19.6 86.6-20.6 122.2-3.1z"/><path fill="#dae5df" d="M1978 2164.4c21.3 12.3 29.9 29.3 25.6 45.2l-89.3-8.2c2.1-1.4 41.8-28.8 58.1-40 1.9 1 3.7 2 5.6 3z"/><path fill="#2774c1" d="M1989.2 2211.7c-2.8 10.6-11.2 20.7-25.2 28.8-4.3 2.5-8.8 4.6-13.7 6.5l-50.5-43.5 89.4 8.2z"/><path fill="#ffbc00" d="m1899.9 2203.5 50.5 43.5c-18.9 7.4-41.7 10.1-63.6 8.2l13.1-51.7z"/></svg>